<svg width="21" height="21" viewBox="0 0 21 21" fill="none" xmlns="http://www.w3.org/2000/svg">
<path d="M17.7083 2.08333H15.625V1.04167C15.625 0.7654 15.5153 0.500448 15.3199 0.305097C15.1246 0.109747 14.8596 0 14.5833 0C14.3071 0 14.0421 0.109747 13.8468 0.305097C13.6514 0.500448 13.5417 0.7654 13.5417 1.04167V2.08333H7.29167V1.04167C7.29167 0.7654 7.18192 0.500448 6.98657 0.305097C6.79122 0.109747 6.52627 0 6.25 0C5.97373 0 5.70878 0.109747 5.51343 0.305097C5.31808 0.500448 5.20833 0.7654 5.20833 1.04167V2.08333H3.125C2.2962 2.08333 1.50134 2.41257 0.915291 2.99863C0.32924 3.58468 0 4.37953 0 5.20833V17.7083C0 18.5371 0.32924 19.332 0.915291 19.918C1.50134 20.5041 2.2962 20.8333 3.125 20.8333H17.7083C18.5371 20.8333 19.332 20.5041 19.918 19.918C20.5041 19.332 20.8333 18.5371 20.8333 17.7083V5.20833C20.8333 4.37953 20.5041 3.58468 19.918 2.99863C19.332 2.41257 18.5371 2.08333 17.7083 2.08333ZM18.75 17.7083C18.75 17.9846 18.6403 18.2496 18.4449 18.4449C18.2496 18.6403 17.9846 18.75 17.7083 18.75H3.125C2.84873 18.75 2.58378 18.6403 2.38843 18.4449C2.19308 18.2496 2.08333 17.9846 2.08333 17.7083V10.4167H18.75V17.7083ZM18.75 8.33333H2.08333V5.20833C2.08333 4.93207 2.19308 4.66711 2.38843 4.47176C2.58378 4.27641 2.84873 4.16667 3.125 4.16667H5.20833V5.20833C5.20833 5.4846 5.31808 5.74955 5.51343 5.9449C5.70878 6.14025 5.97373 6.25 6.25 6.25C6.52627 6.25 6.79122 6.14025 6.98657 5.9449C7.18192 5.74955 7.29167 5.4846 7.29167 5.20833V4.16667H13.5417V5.20833C13.5417 5.4846 13.6514 5.74955 13.8468 5.9449C14.0421 6.14025 14.3071 6.25 14.5833 6.25C14.8596 6.25 15.1246 6.14025 15.3199 5.9449C15.5153 5.74955 15.625 5.4846 15.625 5.20833V4.16667H17.7083C17.9846 4.16667 18.2496 4.27641 18.4449 4.47176C18.6403 4.66711 18.75 4.93207 18.75 5.20833V8.33333Z" fill="black"/>
</svg>
