<svg width="20" height="20" viewBox="0 0 20 20" fill="none" xmlns="http://www.w3.org/2000/svg">
<path d="M10 2.50016C8.4529 2.50016 6.96917 3.11474 5.87521 4.20871C4.78125 5.30267 4.16667 6.7864 4.16667 8.3335C4.16667 10.7185 5.65167 13.0193 7.28167 14.8018C8.11557 15.7094 9.02494 16.5446 10 17.2985C10.975 16.5452 11.8844 15.7105 12.7183 14.8035C14.3483 13.0193 15.8333 10.7193 15.8333 8.3335C15.8333 6.7864 15.2188 5.30267 14.1248 4.20871C13.0308 3.11474 11.5471 2.50016 10 2.50016ZM10 19.3452L9.5275 19.0202L9.525 19.0185L9.52 19.0143L9.50333 19.0027L9.44083 18.9585C9.09578 18.7077 8.7584 18.4464 8.42917 18.1752C7.58531 17.482 6.79088 16.7307 6.05167 15.9268C4.34833 14.0635 2.5 11.3643 2.5 8.3335C2.5 6.34437 3.29018 4.43672 4.6967 3.03019C6.10322 1.62367 8.01088 0.833496 10 0.833496C11.9891 0.833496 13.8968 1.62367 15.3033 3.03019C16.7098 4.43672 17.5 6.34437 17.5 8.3335C17.5 11.3643 15.6517 14.0643 13.9483 15.9268C12.9832 16.9766 11.9244 17.9361 10.785 18.7935C10.6901 18.8644 10.5942 18.9342 10.4975 19.0027L10.48 19.0143L10.475 19.0185L10.4733 19.0193L10 19.3443V19.3452ZM10 6.66683C9.55797 6.66683 9.13405 6.84242 8.82149 7.15498C8.50893 7.46755 8.33333 7.89147 8.33333 8.3335C8.33333 8.77552 8.50893 9.19945 8.82149 9.51201C9.13405 9.82457 9.55797 10.0002 10 10.0002C10.442 10.0002 10.866 9.82457 11.1785 9.51201C11.4911 9.19945 11.6667 8.77552 11.6667 8.3335C11.6667 7.89147 11.4911 7.46755 11.1785 7.15498C10.866 6.84242 10.442 6.66683 10 6.66683ZM6.66667 8.3335C6.66667 7.44944 7.01786 6.60159 7.64298 5.97647C8.2681 5.35135 9.11594 5.00016 10 5.00016C10.8841 5.00016 11.7319 5.35135 12.357 5.97647C12.9821 6.60159 13.3333 7.44944 13.3333 8.3335C13.3333 9.21755 12.9821 10.0654 12.357 10.6905C11.7319 11.3156 10.8841 11.6668 10 11.6668C9.11594 11.6668 8.2681 11.3156 7.64298 10.6905C7.01786 10.0654 6.66667 9.21755 6.66667 8.3335Z" fill="black"/>
</svg>
