<svg width="23" height="23" viewBox="0 0 23 23" fill="none" xmlns="http://www.w3.org/2000/svg">
<path d="M18.1237 14.6837L18.5062 15.655C18.8812 16.6087 19.6362 17.3625 20.5887 17.7387L21.56 18.1212L20.5887 18.505C19.6362 18.88 18.8825 19.635 18.5062 20.5875L18.1237 21.5587L17.74 20.5875C17.5539 20.1163 17.2731 19.6883 16.9148 19.3301C16.5566 18.9719 16.1287 18.691 15.6575 18.505L14.6862 18.1212L15.6575 17.7387C16.1288 17.5525 16.5568 17.2715 16.915 16.913C17.2733 16.5546 17.554 16.1264 17.74 15.655L18.1237 14.6837Z" fill="black" stroke="black" stroke-width="1.875" stroke-linejoin="round"/>
<path d="M8.2575 1.215C8.3575 0.845 8.8825 0.845 8.9825 1.215L9.175 1.93C9.57138 3.40001 10.3466 4.74026 11.4232 5.81684C12.4997 6.89342 13.84 7.66862 15.31 8.065L16.025 8.2575C16.395 8.3575 16.395 8.8825 16.025 8.9825L15.31 9.175C13.84 9.57138 12.4997 10.3466 11.4232 11.4232C10.3466 12.4997 9.57138 13.84 9.175 15.31L8.9825 16.025C8.8825 16.395 8.3575 16.395 8.2575 16.025L8.065 15.31C7.66862 13.84 6.89342 12.4997 5.81684 11.4232C4.74026 10.3466 3.40001 9.57138 1.93 9.175L1.215 8.9825C0.845 8.8825 0.845 8.3575 1.215 8.2575L1.93 8.065C3.40001 7.66862 4.74026 6.89342 5.81684 5.81684C6.89342 4.74026 7.66862 3.40001 8.065 1.93L8.2575 1.215Z" stroke="black" stroke-width="1.875" stroke-linejoin="round"/>
</svg>
