<svg width="24" height="19" viewBox="0 0 24 19" fill="none" xmlns="http://www.w3.org/2000/svg">
<path d="M19.7373 15.4054C19.7373 16.1237 19.452 16.8126 18.9441 17.3205C18.4361 17.8284 17.7473 18.1138 17.029 18.1138C16.3107 18.1138 15.6218 17.8284 15.1139 17.3205C14.606 16.8126 14.3206 16.1237 14.3206 15.4054C14.3206 14.6871 14.606 13.9983 15.1139 13.4903C15.6218 12.9824 16.3107 12.6971 17.029 12.6971C17.7473 12.6971 18.4361 12.9824 18.9441 13.4903C19.452 13.9983 19.7373 14.6871 19.7373 15.4054ZM8.90397 15.4054C8.90397 16.1237 8.61863 16.8126 8.11072 17.3205C7.60281 17.8284 6.91393 18.1138 6.19564 18.1138C5.47734 18.1138 4.78847 17.8284 4.28056 17.3205C3.77265 16.8126 3.4873 16.1237 3.4873 15.4054C3.4873 14.6871 3.77265 13.9983 4.28056 13.4903C4.78847 12.9824 5.47734 12.6971 6.19564 12.6971C6.91393 12.6971 7.60281 12.9824 8.11072 13.4903C8.61863 13.9983 8.90397 14.6871 8.90397 15.4054Z" stroke="black" stroke-width="1.56" stroke-linecap="round" stroke-linejoin="round"/>
<path d="M14.3219 15.405H8.90527M19.7386 15.405H20.5652C20.8035 15.405 20.9227 15.405 21.0224 15.392C21.381 15.3473 21.7145 15.1844 21.9702 14.9289C22.2258 14.6735 22.389 14.3401 22.4339 13.9815C22.4469 13.8808 22.4469 13.7616 22.4469 13.5233V10.53C22.4469 8.66244 21.7051 6.87136 20.3845 5.55079C19.0639 4.23022 17.2728 3.48834 15.4053 3.48834M0.780273 0.780003H11.6136C13.1454 0.780003 13.9114 0.780003 14.3869 1.25667C14.8636 1.73117 14.8636 2.49709 14.8636 4.03V13.2383M0.780273 10.2592V12.6967C0.780273 13.7096 0.780273 14.2155 0.998023 14.5925C1.14064 14.8395 1.34576 15.0446 1.59277 15.1873C1.96977 15.405 2.47569 15.405 3.48861 15.405M0.780273 4.03H7.28027M0.780273 7.28H5.11361" stroke="black" stroke-width="1.56" stroke-linecap="round" stroke-linejoin="round"/>
</svg>
